<svg xmlns="http://www.w3.org/2000/svg" width="24" height="24" viewBox="0 0 24 24"><path d="M23.028,8.5,8.731,22.872A3.926,3.926,0,0,1,5.991,24H1a1.011,1.011,0,0,1-.722-.3A1,1,0,0,1,0,22.978l.127-5.045a3.837,3.837,0,0,1,1.126-2.639L11.387,5.141a.461.461,0,0,1,.637,0l3.554,3.54a1.342,1.342,0,0,0,.935.383,1.4,1.4,0,0,0,1.4-1.4,1.443,1.443,0,0,0-.382-.979c-.064-.085-3.448-3.455-3.448-3.455a.566.566,0,0,1,0-.788L15.508.99a3.355,3.355,0,0,1,4.759,0l2.762,2.767a3.384,3.384,0,0,1,0,4.747" fill="#fff"/></svg>